# xmcd
#
# Track frame offsets: 
#        150
#        19237
#        32692
#        47224
#        61094
#        69306
#        83830
#        102187
#        115637
#        131179
#        144489
#        159084
#
# Disc length: 2300 seconds
#
# Revision: 0
# Processed by: cddbd v1.5.2PL0 Copyright (c) Steve Scherf et al.
# Submitted via: ExactAudioCopy v0.99pb5
#
DISCID=9608fa0c
DTITLE=Tennessee Stud - What if...
DYEAR=2009
DGENRE=
TTITLE0=Muddy River
TTITLE1=Where I Long To Go
TTITLE2=Hopi Land
TTITLE3=Down The River
TTITLE4=Song For Lowell
TTITLE5=Day By Day
TTITLE6=Nine Pound Hammer
TTITLE7=What If You Were Mine
TTITLE8=Funny Way
TTITLE9=I'll Stay Me
TTITLE10=Jesse
TTITLE11=Au Fond L'Amour
EXTD=
EXTT0=
EXTT1=
EXTT2=
EXTT3=
EXTT4=
EXTT5=
EXTT6=
EXTT7=
EXTT8=
EXTT9=
EXTT10=
EXTT11=
PLAYORDER=
